<svg width="20" height="20" viewBox="0 0 20 20" fill="none" xmlns="http://www.w3.org/2000/svg">
<rect width="20" height="20" rx="10" fill="#ECF0F1"/>
<path d="M14.4688 5.75H5.53125C4.95117 5.75 4.5 6.22266 4.5 6.78125V12.9688C4.5 13.5488 4.95117 14 5.53125 14H14.4688C15.0273 14 15.5 13.5488 15.5 12.9688V6.78125C15.5 6.22266 15.0273 5.75 14.4688 5.75ZM14.4688 6.78125V7.66211C13.9746 8.07031 13.2012 8.67188 11.5684 9.96094C11.2031 10.2402 10.4941 10.9277 10 10.9062C9.48438 10.9277 8.77539 10.2402 8.41016 9.96094C6.77734 8.67188 6.00391 8.07031 5.53125 7.66211V6.78125H14.4688ZM5.53125 12.9688V8.99414C6.00391 9.38086 6.71289 9.93945 7.76562 10.7773C8.23828 11.1426 9.07617 11.959 10 11.9375C10.9023 11.959 11.7188 11.1426 12.2129 10.7773C13.2656 9.93945 13.9746 9.38086 14.4688 8.99414V12.9688H5.53125Z" fill="#2C3E50"/>
</svg>
